#N canvas 20 50 1290 809 10;
#X obj 1029 129 netsend;
#X obj 1029 18 loadbang;
#X floatatom 1029 169 5 0 0 0 - - -;
#X floatatom 604 40 5 0 0 0 - - -;
#X msg 1029 39 connect localhost 8005;
#X obj 492 40 netreceive 8006 0;
#X obj 449 65 print;
#X msg 1064 64 send messages to nodejs;
#X obj 82 125 vsl 15 128 0 1 0 0 empty empty empty 0 -9 0 10 -260097
-1 -1 7620 1;
#X obj 142 297 dac~ 1 2 3 4 5 6 7 8 9 10 11 12 13 14 15 16;
#X obj 107 126 vsl 15 128 0 1 0 0 empty empty empty 0 -9 0 10 -260097
-1 -1 0 1;
#X obj 133 125 vsl 15 128 0 1 0 0 empty empty empty 0 -9 0 10 -260097
-1 -1 0 1;
#X obj 161 126 vsl 15 128 0 1 0 0 empty empty empty 0 -9 0 10 -260097
-1 -1 0 1;
#X floatatom 24 229 5 0 0 0 - - -;
#X obj 65 265 *~;
#X obj 92 265 *~;
#X obj 119 265 *~;
#X obj 146 265 *~;
#X obj 186 127 vsl 15 128 0 1 0 0 empty empty empty 0 -9 0 10 -260097
-1 -1 0 1;
#X obj 213 127 vsl 15 128 0 1 0 0 empty empty empty 0 -9 0 10 -260097
-1 -1 0 1;
#X obj 240 127 vsl 15 128 0 1 0 0 empty empty empty 0 -9 0 10 -260097
-1 -1 0 1;
#X obj 267 127 vsl 15 128 0 1 0 0 empty empty empty 0 -9 0 10 -260097
-1 -1 0 1;
#X obj 171 266 *~;
#X obj 198 266 *~;
#X obj 225 266 *~;
#X obj 252 266 *~;
#X obj 295 127 vsl 15 128 0 1 0 0 empty empty empty 0 -9 0 10 -260097
-1 -1 0 1;
#X obj 322 127 vsl 15 128 0 1 0 0 empty empty empty 0 -9 0 10 -260097
-1 -1 0 1;
#X obj 349 127 vsl 15 128 0 1 0 0 empty empty empty 0 -9 0 10 -260097
-1 -1 0 1;
#X obj 376 127 vsl 15 128 0 1 0 0 empty empty empty 0 -9 0 10 -260097
-1 -1 0 1;
#X obj 280 266 *~;
#X obj 307 266 *~;
#X obj 334 266 *~;
#X obj 361 266 *~;
#X obj 404 127 vsl 15 128 0 1 0 0 empty empty empty 0 -9 0 10 -260097
-1 -1 0 1;
#X obj 431 127 vsl 15 128 0 1 0 0 empty empty empty 0 -9 0 10 -260097
-1 -1 0 1;
#X obj 458 127 vsl 15 128 0 1 0 0 empty empty empty 0 -9 0 10 -260097
-1 -1 0 1;
#X obj 485 127 vsl 15 128 0 1 0 0 empty empty empty 0 -9 0 10 -260097
-1 -1 0 1;
#X obj 389 266 *~;
#X obj 416 266 *~;
#X obj 443 266 *~;
#X obj 470 266 *~;
#X obj 163 99 unpack 1 1 1 1 1 1 1 1 1 1 1 1 1 1 1 1;
#X obj 14 249 adc~ 1;
#X text 253 74 PLAYER 1;
#X obj 74 395 vsl 15 128 0 1 0 0 empty empty empty 0 -9 0 10 -260097
-1 -1 10668 1;
#X obj 136 566 dac~ 1 2 3 4 5 6 7 8 9 10 11 12 13 14 15 16;
#X obj 101 395 vsl 15 128 0 1 0 0 empty empty empty 0 -9 0 10 -260097
-1 -1 0 1;
#X obj 128 395 vsl 15 128 0 1 0 0 empty empty empty 0 -9 0 10 -260097
-1 -1 0 1;
#X obj 155 395 vsl 15 128 0 1 0 0 empty empty empty 0 -9 0 10 -260097
-1 -1 0 1;
#X floatatom 18 498 5 0 0 0 - - -;
#X obj 59 534 *~;
#X obj 86 534 *~;
#X obj 113 534 *~;
#X obj 140 534 *~;
#X obj 180 396 vsl 15 128 0 1 0 0 empty empty empty 0 -9 0 10 -260097
-1 -1 0 1;
#X obj 207 396 vsl 15 128 0 1 0 0 empty empty empty 0 -9 0 10 -260097
-1 -1 0 1;
#X obj 234 396 vsl 15 128 0 1 0 0 empty empty empty 0 -9 0 10 -260097
-1 -1 0 1;
#X obj 261 396 vsl 15 128 0 1 0 0 empty empty empty 0 -9 0 10 -260097
-1 -1 0 1;
#X obj 165 535 *~;
#X obj 192 535 *~;
#X obj 219 535 *~;
#X obj 246 535 *~;
#X obj 289 396 vsl 15 128 0 1 0 0 empty empty empty 0 -9 0 10 -260097
-1 -1 0 1;
#X obj 316 396 vsl 15 128 0 1 0 0 empty empty empty 0 -9 0 10 -260097
-1 -1 0 1;
#X obj 343 396 vsl 15 128 0 1 0 0 empty empty empty 0 -9 0 10 -260097
-1 -1 0 1;
#X obj 370 396 vsl 15 128 0 1 0 0 empty empty empty 0 -9 0 10 -260097
-1 -1 0 1;
#X obj 274 535 *~;
#X obj 301 535 *~;
#X obj 328 535 *~;
#X obj 355 535 *~;
#X obj 398 396 vsl 15 128 0 1 0 0 empty empty empty 0 -9 0 10 -260097
-1 -1 0 1;
#X obj 425 396 vsl 15 128 0 1 0 0 empty empty empty 0 -9 0 10 -260097
-1 -1 0 1;
#X obj 452 396 vsl 15 128 0 1 0 0 empty empty empty 0 -9 0 10 -260097
-1 -1 0 1;
#X obj 479 396 vsl 15 128 0 1 0 0 empty empty empty 0 -9 0 10 -260097
-1 -1 0 1;
#X obj 383 535 *~;
#X obj 410 535 *~;
#X obj 437 535 *~;
#X obj 464 535 *~;
#X obj 157 368 unpack 1 1 1 1 1 1 1 1 1 1 1 1 1 1 1 1;
#X obj 492 66 route 1 2 3 4;
#X obj 584 120 vsl 15 128 0 1 0 0 empty empty empty 0 -9 0 10 -260097
-1 -1 0 1;
#X obj 646 291 dac~ 1 2 3 4 5 6 7 8 9 10 11 12 13 14 15 16;
#X obj 611 120 vsl 15 128 0 1 0 0 empty empty empty 0 -9 0 10 -260097
-1 -1 0 1;
#X obj 638 120 vsl 15 128 0 1 0 0 empty empty empty 0 -9 0 10 -260097
-1 -1 0 1;
#X obj 665 120 vsl 15 128 0 1 0 0 empty empty empty 0 -9 0 10 -260097
-1 -1 0 1;
#X floatatom 528 223 5 0 0 0 - - -;
#X obj 569 259 *~;
#X obj 596 259 *~;
#X obj 623 259 *~;
#X obj 650 259 *~;
#X obj 690 121 vsl 15 128 0 1 0 0 empty empty empty 0 -9 0 10 -260097
-1 -1 0 1;
#X obj 717 121 vsl 15 128 0 1 0 0 empty empty empty 0 -9 0 10 -260097
-1 -1 0 1;
#X obj 744 121 vsl 15 128 0 1 0 0 empty empty empty 0 -9 0 10 -260097
-1 -1 0 1;
#X obj 771 121 vsl 15 128 0 1 0 0 empty empty empty 0 -9 0 10 -260097
-1 -1 0 1;
#X obj 675 260 *~;
#X obj 702 260 *~;
#X obj 729 260 *~;
#X obj 756 260 *~;
#X obj 799 121 vsl 15 128 0 1 0 0 empty empty empty 0 -9 0 10 -260097
-1 -1 0 1;
#X obj 826 121 vsl 15 128 0 1 0 0 empty empty empty 0 -9 0 10 -260097
-1 -1 0 1;
#X obj 853 121 vsl 15 128 0 1 0 0 empty empty empty 0 -9 0 10 -260097
-1 -1 0 1;
#X obj 880 121 vsl 15 128 0 1 0 0 empty empty empty 0 -9 0 10 -260097
-1 -1 0 1;
#X obj 784 260 *~;
#X obj 811 260 *~;
#X obj 838 260 *~;
#X obj 865 260 *~;
#X obj 908 121 vsl 15 128 0 1 0 0 empty empty empty 0 -9 0 10 -260097
-1 -1 0 1;
#X obj 935 121 vsl 15 128 0 1 0 0 empty empty empty 0 -9 0 10 -260097
-1 -1 0 1;
#X obj 962 121 vsl 15 128 0 1 0 0 empty empty empty 0 -9 0 10 -260097
-1 -1 0 1;
#X obj 989 121 vsl 15 128 0 1 0 0 empty empty empty 0 -9 0 10 -260097
-1 -1 0 1;
#X obj 893 260 *~;
#X obj 920 260 *~;
#X obj 947 260 *~;
#X obj 974 260 *~;
#X obj 667 93 unpack 1 1 1 1 1 1 1 1 1 1 1 1 1 1 1 1;
#X obj 582 397 vsl 15 128 0 1 0 0 empty empty empty 0 -9 0 10 -260097
-1 -1 8128 1;
#X obj 644 568 dac~ 1 2 3 4 5 6 7 8 9 10 11 12 13 14 15 16;
#X obj 609 397 vsl 15 128 0 1 0 0 empty empty empty 0 -9 0 10 -260097
-1 -1 0 1;
#X obj 636 397 vsl 15 128 0 1 0 0 empty empty empty 0 -9 0 10 -260097
-1 -1 0 1;
#X obj 663 397 vsl 15 128 0 1 0 0 empty empty empty 0 -9 0 10 -260097
-1 -1 0 1;
#X floatatom 526 500 5 0 0 0 - - -;
#X obj 567 536 *~;
#X obj 594 536 *~;
#X obj 621 536 *~;
#X obj 648 536 *~;
#X obj 688 398 vsl 15 128 0 1 0 0 empty empty empty 0 -9 0 10 -260097
-1 -1 0 1;
#X obj 715 398 vsl 15 128 0 1 0 0 empty empty empty 0 -9 0 10 -260097
-1 -1 0 1;
#X obj 742 398 vsl 15 128 0 1 0 0 empty empty empty 0 -9 0 10 -260097
-1 -1 0 1;
#X obj 769 398 vsl 15 128 0 1 0 0 empty empty empty 0 -9 0 10 -260097
-1 -1 0 1;
#X obj 673 537 *~;
#X obj 700 537 *~;
#X obj 727 537 *~;
#X obj 754 537 *~;
#X obj 797 398 vsl 15 128 0 1 0 0 empty empty empty 0 -9 0 10 -260097
-1 -1 0 1;
#X obj 824 398 vsl 15 128 0 1 0 0 empty empty empty 0 -9 0 10 -260097
-1 -1 0 1;
#X obj 851 398 vsl 15 128 0 1 0 0 empty empty empty 0 -9 0 10 -260097
-1 -1 0 1;
#X obj 878 398 vsl 15 128 0 1 0 0 empty empty empty 0 -9 0 10 -260097
-1 -1 0 1;
#X obj 782 537 *~;
#X obj 809 537 *~;
#X obj 836 537 *~;
#X obj 863 537 *~;
#X obj 906 398 vsl 15 128 0 1 0 0 empty empty empty 0 -9 0 10 -260097
-1 -1 0 1;
#X obj 933 398 vsl 15 128 0 1 0 0 empty empty empty 0 -9 0 10 -260097
-1 -1 0 1;
#X obj 960 398 vsl 15 128 0 1 0 0 empty empty empty 0 -9 0 10 -260097
-1 -1 0 1;
#X obj 987 398 vsl 15 128 0 1 0 0 empty empty empty 0 -9 0 10 -260097
-1 -1 0 1;
#X obj 891 537 *~;
#X obj 918 537 *~;
#X obj 945 537 *~;
#X obj 972 537 *~;
#X obj 665 370 unpack 1 1 1 1 1 1 1 1 1 1 1 1 1 1 1 1;
#X text 755 345 PLAYER 4;
#X obj 520 243 adc~ 2;
#X text 757 68 PLAYER 2;
#X text 247 343 PLAYER 3;
#X obj 8 518 adc~ 3;
#X obj 516 520 adc~ 4;
#X floatatom 1086 487 0 0 0 0 - - -;
#X obj 1086 399 cputime;
#X obj 1086 259 loadbang;
#X obj 1086 343 metro 1000;
#X msg 1086 287 1;
#X floatatom 1086 315 0 0 0 0 - - -;
#X obj 1086 371 t b b;
#X obj 1086 459 * 0.1;
#X obj 1086 428 int;
#X text 1131 315 <-- on/off;
#X text 1019 515 CPU load in percent;
#X obj 38 357 vu 15 120 empty empty -1 -8 0 10 -66577 -1 1 0;
#X obj 3 373 env~;
#X obj 2 394 -100;
#X obj 48 96 vu 15 120 empty empty -1 -8 0 10 -66577 -1 0 0;
#X obj 540 97 vu 15 120 empty empty -1 -8 0 10 -66577 -1 1 0;
#X obj 505 113 env~;
#X obj 504 134 -100;
#X obj 545 367 vu 15 120 empty empty -1 -8 0 10 -66577 -1 1 0;
#X obj 508 374 env~;
#X obj 507 395 -100;
#X obj 13 30 env~ 128;
#X obj 40 58 -100;
#X connect 0 0 2 0;
#X connect 1 0 4 0;
#X connect 4 0 0 0;
#X connect 5 0 6 0;
#X connect 5 0 80 0;
#X connect 5 1 3 0;
#X connect 7 0 0 0;
#X connect 8 0 13 0;
#X connect 8 0 14 1;
#X connect 10 0 15 1;
#X connect 11 0 16 1;
#X connect 12 0 17 1;
#X connect 14 0 9 0;
#X connect 15 0 9 1;
#X connect 16 0 9 2;
#X connect 17 0 9 3;
#X connect 18 0 22 1;
#X connect 19 0 23 1;
#X connect 20 0 24 1;
#X connect 21 0 25 1;
#X connect 22 0 9 4;
#X connect 23 0 9 5;
#X connect 24 0 9 6;
#X connect 25 0 9 7;
#X connect 26 0 30 1;
#X connect 27 0 31 1;
#X connect 28 0 32 1;
#X connect 29 0 33 1;
#X connect 30 0 9 8;
#X connect 31 0 9 9;
#X connect 32 0 9 10;
#X connect 33 0 9 11;
#X connect 34 0 38 1;
#X connect 35 0 39 1;
#X connect 36 0 40 1;
#X connect 37 0 41 1;
#X connect 38 0 9 12;
#X connect 39 0 9 13;
#X connect 40 0 9 14;
#X connect 41 0 9 15;
#X connect 42 0 8 0;
#X connect 42 1 10 0;
#X connect 42 2 11 0;
#X connect 42 3 12 0;
#X connect 42 4 18 0;
#X connect 42 5 19 0;
#X connect 42 6 20 0;
#X connect 42 7 21 0;
#X connect 42 8 26 0;
#X connect 42 9 27 0;
#X connect 42 10 28 0;
#X connect 42 11 29 0;
#X connect 42 12 34 0;
#X connect 42 13 35 0;
#X connect 42 14 36 0;
#X connect 42 15 37 0;
#X connect 43 0 14 0;
#X connect 43 0 15 0;
#X connect 43 0 16 0;
#X connect 43 0 17 0;
#X connect 43 0 22 0;
#X connect 43 0 23 0;
#X connect 43 0 24 0;
#X connect 43 0 25 0;
#X connect 43 0 30 0;
#X connect 43 0 31 0;
#X connect 43 0 32 0;
#X connect 43 0 33 0;
#X connect 43 0 38 0;
#X connect 43 0 39 0;
#X connect 43 0 40 0;
#X connect 43 0 41 0;
#X connect 43 0 178 0;
#X connect 45 0 50 0;
#X connect 45 0 51 1;
#X connect 47 0 52 1;
#X connect 48 0 53 1;
#X connect 49 0 54 1;
#X connect 50 0 169 0;
#X connect 51 0 46 0;
#X connect 52 0 46 1;
#X connect 53 0 46 2;
#X connect 54 0 46 3;
#X connect 55 0 59 1;
#X connect 56 0 60 1;
#X connect 57 0 61 1;
#X connect 58 0 62 1;
#X connect 59 0 46 4;
#X connect 60 0 46 5;
#X connect 61 0 46 6;
#X connect 62 0 46 7;
#X connect 63 0 67 1;
#X connect 64 0 68 1;
#X connect 65 0 69 1;
#X connect 66 0 70 1;
#X connect 67 0 46 8;
#X connect 68 0 46 9;
#X connect 69 0 46 10;
#X connect 70 0 46 11;
#X connect 71 0 75 1;
#X connect 72 0 76 1;
#X connect 73 0 77 1;
#X connect 74 0 78 1;
#X connect 75 0 46 12;
#X connect 76 0 46 13;
#X connect 77 0 46 14;
#X connect 78 0 46 15;
#X connect 79 0 45 0;
#X connect 79 1 47 0;
#X connect 79 2 48 0;
#X connect 79 3 49 0;
#X connect 79 4 55 0;
#X connect 79 5 56 0;
#X connect 79 6 57 0;
#X connect 79 7 58 0;
#X connect 79 8 63 0;
#X connect 79 9 64 0;
#X connect 79 10 65 0;
#X connect 79 11 66 0;
#X connect 79 12 71 0;
#X connect 79 13 72 0;
#X connect 79 14 73 0;
#X connect 79 15 74 0;
#X connect 80 0 42 0;
#X connect 80 1 115 0;
#X connect 80 2 79 0;
#X connect 80 3 150 0;
#X connect 81 0 86 0;
#X connect 81 0 87 1;
#X connect 83 0 88 1;
#X connect 84 0 89 1;
#X connect 85 0 90 1;
#X connect 87 0 82 0;
#X connect 88 0 82 1;
#X connect 89 0 82 2;
#X connect 90 0 82 3;
#X connect 91 0 95 1;
#X connect 92 0 96 1;
#X connect 93 0 97 1;
#X connect 94 0 98 1;
#X connect 95 0 82 4;
#X connect 96 0 82 5;
#X connect 97 0 82 6;
#X connect 98 0 82 7;
#X connect 99 0 103 1;
#X connect 100 0 104 1;
#X connect 101 0 105 1;
#X connect 102 0 106 1;
#X connect 103 0 82 8;
#X connect 104 0 82 9;
#X connect 105 0 82 10;
#X connect 106 0 82 11;
#X connect 107 0 111 1;
#X connect 108 0 112 1;
#X connect 109 0 113 1;
#X connect 110 0 114 1;
#X connect 111 0 82 12;
#X connect 112 0 82 13;
#X connect 113 0 82 14;
#X connect 114 0 82 15;
#X connect 115 0 81 0;
#X connect 115 1 83 0;
#X connect 115 2 84 0;
#X connect 115 3 85 0;
#X connect 115 4 91 0;
#X connect 115 5 92 0;
#X connect 115 6 93 0;
#X connect 115 7 94 0;
#X connect 115 8 99 0;
#X connect 115 9 100 0;
#X connect 115 10 101 0;
#X connect 115 11 102 0;
#X connect 115 12 107 0;
#X connect 115 13 108 0;
#X connect 115 14 109 0;
#X connect 115 15 110 0;
#X connect 116 0 121 0;
#X connect 116 0 122 1;
#X connect 118 0 123 1;
#X connect 119 0 124 1;
#X connect 120 0 125 1;
#X connect 122 0 117 0;
#X connect 123 0 117 1;
#X connect 124 0 117 2;
#X connect 125 0 117 3;
#X connect 126 0 130 1;
#X connect 127 0 131 1;
#X connect 128 0 132 1;
#X connect 129 0 133 1;
#X connect 130 0 117 4;
#X connect 131 0 117 5;
#X connect 132 0 117 6;
#X connect 133 0 117 7;
#X connect 134 0 138 1;
#X connect 135 0 139 1;
#X connect 136 0 140 1;
#X connect 137 0 141 1;
#X connect 138 0 117 8;
#X connect 139 0 117 9;
#X connect 140 0 117 10;
#X connect 141 0 117 11;
#X connect 142 0 146 1;
#X connect 143 0 147 1;
#X connect 144 0 148 1;
#X connect 145 0 149 1;
#X connect 146 0 117 12;
#X connect 147 0 117 13;
#X connect 148 0 117 14;
#X connect 149 0 117 15;
#X connect 150 0 116 0;
#X connect 150 1 118 0;
#X connect 150 2 119 0;
#X connect 150 3 120 0;
#X connect 150 4 126 0;
#X connect 150 5 127 0;
#X connect 150 6 128 0;
#X connect 150 7 129 0;
#X connect 150 8 134 0;
#X connect 150 9 135 0;
#X connect 150 10 136 0;
#X connect 150 11 137 0;
#X connect 150 12 142 0;
#X connect 150 13 143 0;
#X connect 150 14 144 0;
#X connect 150 15 145 0;
#X connect 152 0 87 0;
#X connect 152 0 88 0;
#X connect 152 0 89 0;
#X connect 152 0 90 0;
#X connect 152 0 95 0;
#X connect 152 0 96 0;
#X connect 152 0 97 0;
#X connect 152 0 98 0;
#X connect 152 0 103 0;
#X connect 152 0 104 0;
#X connect 152 0 105 0;
#X connect 152 0 106 0;
#X connect 152 0 111 0;
#X connect 152 0 112 0;
#X connect 152 0 113 0;
#X connect 152 0 114 0;
#X connect 152 0 173 0;
#X connect 155 0 51 0;
#X connect 155 0 52 0;
#X connect 155 0 53 0;
#X connect 155 0 54 0;
#X connect 155 0 59 0;
#X connect 155 0 60 0;
#X connect 155 0 61 0;
#X connect 155 0 62 0;
#X connect 155 0 67 0;
#X connect 155 0 68 0;
#X connect 155 0 69 0;
#X connect 155 0 70 0;
#X connect 155 0 75 0;
#X connect 155 0 76 0;
#X connect 155 0 77 0;
#X connect 155 0 78 0;
#X connect 156 0 122 0;
#X connect 156 0 123 0;
#X connect 156 0 124 0;
#X connect 156 0 125 0;
#X connect 156 0 130 0;
#X connect 156 0 131 0;
#X connect 156 0 132 0;
#X connect 156 0 133 0;
#X connect 156 0 138 0;
#X connect 156 0 139 0;
#X connect 156 0 140 0;
#X connect 156 0 141 0;
#X connect 156 0 146 0;
#X connect 156 0 147 0;
#X connect 156 0 148 0;
#X connect 156 0 149 0;
#X connect 156 0 176 0;
#X connect 158 0 165 0;
#X connect 159 0 161 0;
#X connect 160 0 163 0;
#X connect 161 0 162 0;
#X connect 162 0 160 0;
#X connect 163 0 158 0;
#X connect 163 1 158 1;
#X connect 164 0 157 0;
#X connect 165 0 164 0;
#X connect 169 0 170 0;
#X connect 170 0 168 0;
#X connect 173 0 174 0;
#X connect 174 0 172 0;
#X connect 176 0 177 0;
#X connect 177 0 175 0;
#X connect 178 0 179 0;
#X connect 179 0 171 0;
